<svg id="Capa_1" enable-background="new 0 0 512 512" height="512" viewBox="0 0 512 512" width="512" xmlns="http://www.w3.org/2000/svg"><g><path d="m263.741 273.15h121.51v30h-121.51z" fill="#b6ecff" transform="matrix(.707 -.707 .707 .707 -108.711 313.85)"/><path d="m269.044 285.954h121.51v15h-121.51z" fill="#99bdf2" transform="matrix(.707 -.707 .707 .707 -110.907 319.154)"/><path d="m344.544 178.08h84v96.03h-84z" fill="#00b3ff" transform="matrix(.707 -.707 .707 .707 -46.657 339.55)"/><path d="m361.522 219.067h84v48.01h-84z" fill="#0174f9" transform="matrix(.707 -.707 .707 .707 -53.689 356.527)"/><g><g fill="#febf01"><path d="m427.96 335.75h30v159h-30z"/><path d="m54.04 335.75h30v159h-30z"/></g><g fill="#febf01"><path d="m283.11 335.75h30v159h-30z"/><path d="m198.89 335.75h30v159h-30z"/></g><path d="m267.12 348.5h-22.24c-40.07 0-74.74 27.9-83.51 66.75-.21.93-.41 1.87-.59 2.82-10.4 54.42-58.17 93.93-113.58 93.93h-47.2v-30h47.2c40.07 0 74.75-27.91 83.52-66.75.21-.93.41-1.87.59-2.81 10.4-54.43 58.16-93.94 113.57-93.94h22.24c55.41 0 103.17 39.51 113.57 93.93.18.95.38 1.89.59 2.82 8.77 38.85 43.45 66.75 83.52 66.75h47.2v30h-47.2c-55.41 0-103.18-39.51-113.58-93.94-.18-.94-.38-1.88-.59-2.81-8.77-38.84-43.44-66.75-83.51-66.75z" fill="#00b3ff"/><g fill="#fe9100"><path d="m427.96 415.25h30v79.5h-30z"/><path d="m283.11 415.25h30v79.5h-30z"/><path d="m198.89 415.25h30v79.5h-30z"/><path d="m54.04 415.25h30v79.5h-30z"/></g><path d="m512 512h-47.2c-55.41 0-103.18-39.51-113.58-93.94-.18-.94-.38-1.88-.59-2.81h30.65c8.77 38.85 43.45 66.75 83.52 66.75h47.2z" fill="#0174f9"/><path d="m47.2 512h-47.2v-30h47.2c40.07 0 74.75-27.91 83.52-66.75h30.65c-.21.93-.41 1.87-.59 2.82-10.4 54.42-58.17 93.93-113.58 93.93z" fill="#0174f9"/><path d="m267.12 512h-22.24c-55.41 0-103.17-39.51-113.57-93.93-.18-.95-.38-1.89-.59-2.82-8.77-38.85-43.45-66.75-83.52-66.75h-47.2v-30h47.2c55.41 0 103.18 39.51 113.58 93.94.18.94.38 1.88.59 2.81 8.77 38.84 43.44 66.75 83.51 66.75h22.24c40.07 0 74.74-27.9 83.51-66.75.21-.93.41-1.87.59-2.82 10.4-54.42 58.17-93.93 113.58-93.93h47.2v30h-47.2c-40.07 0-74.75 27.91-83.52 66.75-.21.93-.41 1.87-.59 2.81-10.4 54.43-58.16 93.94-113.57 93.94z" fill="#fd4b49"/><path d="m267.12 512h-22.24c-55.41 0-103.17-39.51-113.57-93.93-.18-.95-.38-1.89-.59-2.82h30.65c8.77 38.84 43.44 66.75 83.51 66.75h22.24c40.07 0 74.74-27.9 83.51-66.75h30.65c-.21.93-.41 1.87-.59 2.81-10.4 54.43-58.16 93.94-113.57 93.94z" fill="#e70b69"/></g><path d="m497.373 0-149.61 149.611 115.265 115.265 48.972-48.972v-215.904z" fill="#b6ecff"/><path d="m446.699 46.121h30v50.44h-30z" fill="#00b3ff" transform="matrix(.707 -.707 .707 .707 84.783 347.366)"/><path d="m397.909 94.911h30v50.44h-30z" fill="#00b3ff" transform="matrix(.707 -.707 .707 .707 35.993 327.156)"/><path d="m512 100.646-106.601 106.601 57.629 57.629 48.972-48.972z" fill="#99bdf2"/></g></svg>