<svg height="512" viewBox="0 0 512 512" width="512" xmlns="http://www.w3.org/2000/svg"><g id="Filled_outline" data-name="Filled outline"><path d="m488 288v88l-32 16h-432v-39.21a51.036 51.036 0 0 1 .77-8.79 49.79 49.79 0 0 1 39.23-40l72-8h256l40-24z" fill="#348fd9"/><circle cx="112" cy="376" fill="#4d5e78" r="40"/><circle cx="112" cy="376" fill="#e0e0de" r="16"/><circle cx="400" cy="376" fill="#4d5e78" r="40"/><circle cx="400" cy="376" fill="#e0e0de" r="16"/><path d="m432 272-40 24h-256l80-64h144z" fill="#4db7e5"/><path d="m432 272-40 24h-177.21l71.11-64h74.1z" fill="#4aafdb"/><path d="m272 160h32v40h-32z" fill="#45a7d1"/><path d="m344 200h-112a16 16 0 0 0 -16 16v16h144v-16a16 16 0 0 0 -16-16z" fill="#4d5e78"/><path d="m490.2 280.308-55.121-15.748-67.079-37.267v-11.293a24.028 24.028 0 0 0 -24-24h-32v-24h8v-16h-64v16h8v24h-32a24.028 24.028 0 0 0 -24 24v12.155l-47 37.6 10 12.494 47.807-38.249h61.193v48h-144a8.17 8.17 0 0 0 -.884.049l-72 8c-.228.025-.456.06-.681.105a57.754 57.754 0 0 0 -46.435 56.636v39.21a8 8 0 0 0 8 8h46.458a47.989 47.989 0 1 0 -5.779-16h-32.679v-31.21a41.634 41.634 0 0 1 .943-8.79h23.057v-16h-15.838c.422-.572.854-1.137 1.306-1.688a41.814 41.814 0 0 1 23.774-14.4l71.2-7.911h143.558v32h-104v16h104v32h-104v16h182.458a47.953 47.953 0 0 0 83.084 0h14.458a7.994 7.994 0 0 0 3.578-.845l32-16a8 8 0 0 0 4.422-7.156v-88a8 8 0 0 0 -5.8-7.692zm-378.2 63.692a32 32 0 1 1 -32 32 32.036 32.036 0 0 1 32-32zm304.007-71.734-26.223 15.734h-93.784v-48h61.927zm-136.007-104.266h16v24h-16zm-56 56v-8a8.009 8.009 0 0 1 8-8h112a8.009 8.009 0 0 1 8 8v8zm176 184a32 32 0 1 1 32-32 32.036 32.036 0 0 1 -32 32zm80-104h-32v16h32v51.056l-25.889 12.944h-6.79a48 48 0 1 0 -94.642 0h-56.679v-32h40v-16h-40v-32h96a8.009 8.009 0 0 0 4.116-1.14l37.024-22.214 46.86 13.388z"/><circle cx="112" cy="376" r="16"/><circle cx="400" cy="376" r="16"/><path d="m170.343 138.343a64.593 64.593 0 0 0 -6.444 83.81l12.9-9.466a48.87 48.87 0 0 1 4.857-63.03z"/><path d="m138.22 244.467 12.621-9.834a82.568 82.568 0 0 1 6.816-108.976l-11.314-11.314a98.59 98.59 0 0 0 -8.123 130.124z"/><path d="m112.5 266.649 12.49-10a116.238 116.238 0 0 1 8.672-154.994l-11.319-11.312a132.22 132.22 0 0 0 -9.843 176.306z"/><path d="m397.893 149.657a48.448 48.448 0 0 1 1.49 67.128l11.8 10.811a64.416 64.416 0 0 0 -1.971-89.253z"/><path d="m421.893 125.657a82.5 82.5 0 0 1 5.641 110.434l12.393 10.119a98.5 98.5 0 0 0 -6.72-131.867z"/><path d="m455.753 255.154 12.654 9.791c40.634-52.52 35.819-127.584-11.2-174.6l-11.314 11.314c41.339 41.341 45.579 107.327 9.86 153.495z"/></g></svg>